Coordinates
version=1
nRows=11
nColumns=63
inDegrees=yes

Units are S.I. units (second, meters, Newtons, ...)
If the header above contains a line with 'inDegrees', this indicates whether rotational values are in degrees (yes) or radians (no).

endheader
time	pelvis_tilt	pelvis_list	pelvis_rotation	pelvis_tx	pelvis_ty	pelvis_tz	hip_flexion_r	hip_adduction_r	hip_rotation_r	knee_angle_r	knee_angle_r_beta	ankle_angle_r	subtalar_angle_r	mtp_angle_r	hip_flexion_l	hip_adduction_l	hip_rotation_l	knee_angle_l	knee_angle_l_beta	ankle_angle_l	subtalar_angle_l	mtp_angle_l	L5_S1_Flex_Ext	L5_S1_Lat_Bending	L5_S1_axial_rotation	L4_L5_Flex_Ext	L4_L5_Lat_Bending	L4_L5_axial_rotation	L3_L4_Flex_Ext	L3_L4_Lat_Bending	L3_L4_axial_rotation	L2_L3_Flex_Ext	L2_L3_Lat_Bending	L2_L3_axial_rotation	L1_L2_Flex_Ext	L1_L2_Lat_Bending	L1_L2_axial_rotation	L1_T12_Flex_Ext	L1_T12_Lat_Bending	L1_T12_axial_rotation	Abs_r3	Abs_r2	Abs_r1	Abs_t1	Abs_t2	neck_flexion	neck_bending	neck_rotation	arm_flex_r	arm_add_r	arm_rot_r	elbow_flex_r	pro_sup_r	wrist_flex_r	wrist_dev_r	arm_flex_l	arm_add_l	arm_rot_l	elbow_flex_l	pro_sup_l	wrist_flex_l	wrist_dev_l
      1.14814815	     -3.19454709	     -2.17462887	     82.24803977	      0.26464899	      0.91843587	      0.63520656	      3.81401194	     -4.65606803	     -4.24031395	     10.96206854	      0.19132419	     35.68992013	     10.94960114	      0.00000000	      3.54037428	      5.09162199	      0.18977882	     11.27883553	      0.19685282	     32.40911422	     -8.54944555	      0.00000000	      0.23695712	     -0.42592335	      2.45874488	      0.44005306	     -0.56647805	      2.61241644	      0.38929685	     -1.03559002	      2.61241644	      0.27081829	     -1.03559002	      2.15140177	      0.22003838	     -0.86854289	      1.99773022	      0.13539730	     -0.65975526	      1.84405866	      1.69256099	     -4.81813008	     13.67480142	      0.00000000	      0.00000000	     19.09548068	     -3.90543288	    -25.50451385	      7.05509148	     -8.03431287	     45.89464460	     39.04090226	     64.42993905	      8.13918352	      9.25171517	     25.65901376	    -10.10368387	     92.02070820	     44.03665276	     39.52582661	      5.46359693	     -4.13276169
      1.16666667	     -3.24444202	     -2.18105655	     82.25118961	      0.26479903	      0.91833506	      0.63575910	      3.94032552	     -4.68551908	     -4.18481113	     11.15255625	      0.19464883	     35.63555406	     10.78649596	      0.00000000	      3.67492002	      5.12048953	     -0.00285272	     11.40632772	      0.19907797	     32.53248363	     -8.45716843	      0.00000000	      0.24508767	     -0.42206499	      2.42442582	      0.45515230	     -0.56134644	      2.57595244	      0.40265453	     -1.02620882	      2.57595244	      0.28011069	     -1.02620882	      2.12137260	      0.22758841	     -0.86067493	      1.96984598	      0.14004309	     -0.65377867	      1.81831937	      1.75063669	     -4.77448361	     13.48392910	      0.00000000	      0.00000000	     18.88980731	     -3.87992651	    -25.29411259	      6.99664805	     -8.06488740	     45.86727656	     39.19106368	     64.27305929	      8.04517655	      9.17139375	     25.71179106	    -10.19997715	     92.01688589	     44.13435663	     39.55938683	      5.41592550	     -4.00203293
      1.18518519	     -3.05390363	     -2.00440471	     82.22912691	      0.26515122	      0.91853744	      0.63568584	      3.66078104	     -4.45211240	     -3.84775885	     11.14757991	      0.19456197	     35.47313187	     10.47435958	      0.00000000	      3.40157967	      4.92666989	      0.09550000	     11.25638791	      0.19646103	     32.82473739	     -8.43254651	      0.00000000	      0.23244166	     -0.37271020	      2.29618165	      0.43166741	     -0.49570457	      2.43969300	      0.38187840	     -0.90620759	      2.43969300	      0.26565757	     -0.90620759	      2.00915895	      0.21584533	     -0.76003065	      1.86564759	      0.13281716	     -0.57732811	      1.72213624	      1.66030753	     -4.21617238	     12.77067349	      0.00000000	      0.00000000	     18.90696061	     -3.15285857	    -22.48685103	      6.95848892	     -8.00740641	     45.79460560	     39.31497254	     65.70257179	      7.54718248	      8.45355665	     25.26524136	    -10.38631740	     91.09617483	     44.00362842	     38.19494316	      6.55173299	     -3.85964594
      1.20370370	     -2.97702941	     -1.97520255	     82.31349592	      0.26526071	      0.91849057	      0.63595999	      3.54146886	     -4.27156868	     -3.02545579	     11.15451408	      0.19468300	     35.20102960	      9.38474011	      0.00000000	      3.47882273	      4.74401714	     -0.80660169	     11.44331550	      0.19972353	     33.41463383	     -7.10504184	      0.00000000	      0.22226830	     -0.35004781	      2.21889427	      0.41277445	     -0.46556359	      2.35757516	      0.36516458	     -0.85110625	      2.35757516	      0.25403044	     -0.85110625	      1.94153248	      0.20639834	     -0.71381750	      1.80285159	      0.12700410	     -0.54222406	      1.66417070	      1.58764021	     -3.95981086	     12.34082425	      0.00000000	      0.00000000	     18.89235856	     -3.00595449	    -21.77999912	      7.01235176	     -8.05344610	     45.86650257	     39.59722602	     65.00026560	      7.34993101	      8.46594994	     25.23227066	    -10.55804116	     90.65054507	     44.22973954	     38.26120539	      6.57891396	     -3.29748949
      1.22222222	     -3.01398608	     -2.07470107	     82.38583999	      0.26514074	      0.91822296	      0.63620521	      3.66497634	     -4.26993355	     -2.68702127	     11.39112161	      0.19881258	     35.13655134	      8.88830331	      0.00000000	      3.70314767	      4.74746432	     -0.99935271	     11.61648516	      0.20274591	     33.87592354	     -6.74967349	      0.00000000	      0.24157269	     -0.33979647	      2.15925008	      0.44862464	     -0.45192930	      2.29420321	      0.39687977	     -0.82618113	      2.29420321	      0.27609343	     -0.82618113	      1.88934382	      0.22432440	     -0.69291296	      1.75439069	      0.13803463	     -0.52634473	      1.61943756	      1.72552956	     -3.84384560	     12.00910119	      0.00000000	      0.00000000	     18.56432684	     -3.05167034	    -21.47733136	      7.05915604	     -8.01661799	     45.81236829	     39.74912016	     64.78431041	      7.26247083	      8.44458909	     25.27541331	    -10.62035801	     90.61542521	     44.27895043	     38.32527575	      6.54575049	     -3.05457976
      1.24074074	     -2.82837022	     -1.83147288	     82.21617034	      0.26518521	      0.91834235	      0.63661119	      3.33649303	     -4.08171057	     -2.26891731	     11.41345446	      0.19920236	     34.82724468	      8.67258709	      0.00000000	      3.35855599	      4.55449535	     -1.43104405	     11.43904618	      0.19964902	     34.12266394	     -6.20138940	      0.00000000	      0.18779187	     -0.28413201	      2.11104630	      0.34874828	     -0.37789557	      2.24298669	      0.30852326	     -0.69083857	      2.24298669	      0.21462733	     -0.69083857	      1.84716551	      0.17438353	     -0.57940199	      1.71522512	      0.10730427	     -0.44012048	      1.58328472	      1.34137854	     -3.21415812	     11.74100619	      0.00000000	      0.00000000	     19.45940498	     -2.33161730	    -18.36027743	      6.99586078	     -8.20705675	     44.69198095	     40.66411498	     65.49942443	      7.35917925	     10.24474779	     24.92015182	    -10.59905323	     88.90795637	     44.04886489	     38.56345258	      8.41731133	     -2.21541847
      1.25925926	     -2.82565001	     -1.79104684	     82.27923681	      0.26500276	      0.91819924	      0.63696389	      3.24088868	     -4.07026631	     -2.04634310	     11.46306064	      0.20006815	     34.64615766	      8.38568292	      0.00000000	      3.41010393	      4.51707257	     -1.83519532	     11.58754256	      0.20224077	     34.37619439	     -5.59094760	      0.00000000	      0.17314082	     -0.26807317	      2.07492408	      0.32153981	     -0.35653731	      2.20460683	      0.28445305	     -0.65179310	      2.20460683	      0.19788264	     -0.65179310	      1.81555857	      0.16077856	     -0.54665480	      1.68587581	      0.09893266	     -0.41524534	      1.55619306	      1.23672754	     -3.03249728	     11.54010525	      0.00000000	      0.00000000	     19.87773067	     -2.13873086	    -17.53875888	      6.64839044	     -8.20156801	     43.13807032	     41.49494060	     66.12735164	      7.50004839	     11.49008079	     24.74497256	    -10.61274851	     87.54026368	     43.98264116	     39.97702881	      9.56584904	     -1.00305768
      1.27777778	     -2.89438168	     -1.69301257	     82.26214597	      0.26494452	      0.91817005	      0.63742122	      3.14449924	     -4.15377091	     -1.94536391	     11.51229116	      0.20092739	     34.54486974	      8.33219961	      0.00000000	      3.39413874	      4.59010689	     -2.01874645	     11.68971367	      0.20402399	     34.35278470	     -5.42074131	      0.00000000	      0.15130075	     -0.26352348	      2.04633103	      0.28098062	     -0.35048623	      2.17422672	      0.24857200	     -0.64073100	      2.17422672	      0.17292163	     -0.64073100	      1.79053965	      0.14049788	     -0.53737709	      1.66264396	      0.08645325	     -0.40819787	      1.53474828	      1.08072612	     -2.98103034	     11.38107931	      0.00000000	      0.00000000	     20.29811814	     -2.12273474	    -17.24150922	      6.56655734	     -8.35166328	     42.78817156	     42.15349595	     66.02364321	      7.49254082	     11.51565804	     24.85440566	    -10.75562707	     87.28886507	     44.20931872	     40.22186609	      9.64579480	     -0.86065358
      1.29629630	     -2.97060753	     -1.63973016	     82.18821414	      0.26507945	      0.91800375	      0.63765068	      3.08112153	     -4.22351400	     -1.72068328	     11.47788218	      0.20032684	     34.52068176	      8.25803641	      0.00000000	      3.37515979	      4.65693411	     -2.17901426	     11.72503080	      0.20464039	     34.28958750	     -5.24747451	      0.00000000	      0.14583852	     -0.25190747	      2.04463594	      0.27083672	     -0.33503693	      2.17242568	      0.23959811	     -0.61248782	      2.17242568	      0.16667885	     -0.61248782	      1.78905644	      0.13542565	     -0.51368971	      1.66126670	      0.08333213	     -0.39020467	      1.53347695	      1.04170998	     -2.84962766	     11.37165168	      0.00000000	      0.00000000	     20.91474445	     -1.72346440	    -15.98230155	      5.77928005	     -8.22584392	     40.37805236	     43.29445508	     66.71173159	      7.42633584	     13.40896804	     24.63244248	    -10.79673837	     86.03690083	     44.24520787	     41.64718850	     10.43943094	      0.09787951
      1.31481481	     -3.04916513	     -1.59381679	     82.11882289	      0.26541552	      0.91802349	      0.63788160	      3.07075194	     -4.28420023	     -1.68981635	     11.48865506	      0.20051486	     34.50681246	      8.31239313	      0.00000000	      3.36686846	      4.71592293	     -2.24400103	     11.77326456	      0.20548223	     34.15141206	     -5.21874950	      0.00000000	      0.15608049	     -0.25026052	      2.02524575	      0.28985707	     -0.33284649	      2.15182361	      0.25642463	     -0.60848342	      2.15182361	      0.17838439	     -0.60848342	      1.77209003	      0.14493634	     -0.51033125	      1.64551218	      0.08918439	     -0.38765354	      1.51893432	      1.11486731	     -2.83099702	     11.26380931	      0.00000000	      0.00000000	     21.21264896	     -1.73658591	    -15.88390541	      5.67092324	     -8.24717076	     40.29622433	     43.63053906	     66.66622334	      7.44596336	     13.38300560	     24.64520399	    -10.92766408	     86.00233437	     44.34774598	     41.69485191	     10.41630102	      0.13342997
      1.33333333	     -3.22891196	     -1.37258577	     82.05579610	      0.26543839	      0.91797175	      0.63795316	      2.89435826	     -4.49127909	     -1.67521886	     11.51850423	      0.20103582	     34.68206975	      8.34702637	      0.00000000	      3.16581586	      4.93526927	     -2.40419474	     11.81115932	      0.20614362	     34.00838209	     -5.17083344	      0.00000000	      0.12656963	     -0.25515495	      2.03024795	      0.23505246	     -0.33935608	      2.15713845	      0.20794125	     -0.62038374	      2.15713845	      0.14465643	     -0.62038374	      1.77646696	      0.11753256	     -0.52031197	      1.64957646	      0.07232189	     -0.39523501	      1.52268596	      0.90407422	     -2.88636378	     11.29163004	      0.00000000	      0.00000000	     22.19315545	     -1.53041309	    -15.25150635	      5.17797028	     -8.50743401	     39.52589999	     44.68645771	     66.60980136	      7.47034334	     13.54776759	     24.65965602	    -11.16471384	     85.69144768	     44.82561235	     41.79388930	     10.46728636	      0.22659525
